<?xml version="1.0" standalone="no"?>
<!DOCTYPE svg PUBLIC "-//W3C//DTD SVG 20010904//EN"
 "http://www.w3.org/TR/2001/REC-SVG-20010904/DTD/svg10.dtd">
<svg version="1.0" xmlns="http://www.w3.org/2000/svg"
 width="300.000000pt" height="300.000000pt" viewBox="0 0 300.000000 300.000000"
 preserveAspectRatio="xMidYMid meet">
<metadata>
Created by potrace 1.14, written by Peter Selinger 2001-2017
</metadata>
<g transform="translate(0.000000,300.000000) scale(0.100000,-0.100000)"
fill="#000000" stroke="none">
<path d="M420 2938 c-14 -24 -24 -46 -22 -50 1 -5 -2 -8 -8 -8 -6 0 -10 -7
-10 -15 0 -8 -4 -15 -9 -15 -5 0 -11 -6 -13 -13 -2 -7 -83 -151 -181 -319
l-178 -306 39 -64 c43 -70 84 -142 116 -203 12 -22 24 -42 27 -45 3 -3 23 -36
44 -75 20 -38 44 -77 51 -86 8 -8 14 -19 14 -22 0 -4 12 -26 27 -50 14 -23 26
-44 26 -47 0 -3 15 -28 34 -57 38 -59 38 -57 -27 -168 -26 -44 -112 -192 -191
-330 -79 -137 -147 -251 -151 -253 -14 -6 -9 -20 57 -132 36 -61 65 -115 65
-121 0 -5 4 -9 9 -9 5 0 11 -8 14 -18 3 -9 20 -39 36 -67 17 -27 34 -57 38
-65 4 -8 24 -43 45 -78 21 -34 38 -67 38 -72 0 -6 4 -10 8 -10 4 0 13 -12 20
-28 6 -15 26 -49 42 -77 17 -27 37 -63 43 -78 6 -15 21 -30 32 -33 11 -2 213
-3 449 -2 l428 3 48 85 c27 47 53 91 59 98 7 6 10 12 7 12 -5 0 88 158 104
177 6 7 9 13 6 13 -4 0 87 157 102 175 4 6 11 18 15 27 3 10 22 42 40 71 l34
53 398 -1 c251 0 403 4 411 10 6 6 38 55 70 110 122 211 266 461 274 475 5 8
30 50 55 93 l46 78 -62 107 c-35 59 -71 119 -81 135 -11 15 -16 27 -11 27 4 0
3 4 -3 8 -6 4 -21 27 -35 52 -13 25 -26 47 -29 50 -3 3 -16 25 -29 50 -43 80
-46 84 -58 97 -6 7 -15 23 -19 36 -4 12 -9 24 -13 27 -6 5 -18 25 -58 99 -10
19 -26 44 -36 56 -18 22 -19 22 -414 21 -251 -1 -400 3 -408 9 -16 13 -115
180 -115 194 0 6 -4 11 -10 11 -5 0 -10 4 -10 9 0 5 -39 76 -86 158 -48 81
-96 164 -106 183 -11 19 -36 61 -55 93 l-34 57 -443 0 -442 0 -24 -42z m885
-135 c22 -38 44 -77 51 -88 17 -31 45 -80 123 -212 39 -68 71 -127 71 -133 0
-5 3 -10 8 -10 4 0 12 -10 18 -23 6 -12 23 -44 38 -70 l27 -48 -79 -137 c-44
-75 -89 -153 -99 -172 -11 -19 -43 -74 -72 -122 -28 -48 -51 -91 -51 -97 0 -6
-4 -11 -8 -11 -4 0 -21 -27 -37 -60 -17 -33 -37 -60 -45 -61 -8 0 -176 -2
-373 -2 -307 -2 -360 0 -372 13 -19 21 -155 258 -155 269 0 5 -4 11 -8 13 -4
2 -19 23 -33 48 -44 77 -70 122 -125 217 -54 91 -63 113 -44 113 6 0 10 5 10
11 0 6 17 39 37 73 21 33 45 75 54 91 9 17 28 50 43 75 14 25 29 53 32 63 4 9
10 17 15 17 5 0 9 4 9 9 0 8 110 205 156 279 l14 22 378 0 378 0 39 -67z
m1218 -698 c45 -75 68 -116 90 -160 12 -22 23 -42 26 -45 9 -8 30 -43 40 -67
6 -11 15 -24 20 -28 6 -3 11 -15 11 -26 0 -10 4 -19 8 -19 4 0 19 -22 33 -50
13 -27 27 -50 32 -50 4 0 7 -4 7 -9 0 -5 18 -40 40 -79 40 -69 40 -69 23 -103
-9 -19 -19 -36 -22 -39 -3 -3 -17 -25 -30 -50 -13 -25 -29 -52 -35 -60 -6 -8
-16 -24 -22 -35 -13 -24 -122 -215 -145 -253 -41 -69 -70 -120 -85 -149 -9
-18 -19 -33 -23 -34 -3 -1 -173 -2 -377 -2 l-372 -2 -158 274 c-241 416 -226
386 -206 413 10 13 28 43 41 68 13 25 28 51 34 58 11 14 52 86 70 122 6 14 14
27 18 30 3 3 12 16 19 30 7 14 38 68 69 120 30 52 55 98 53 103 -1 4 3 7 8 7
5 0 10 7 10 15 0 8 5 15 10 15 6 0 10 6 10 14 0 42 11 43 401 42 l373 -1 29
-50z m-1242 -699 c14 -23 38 -63 53 -91 16 -27 32 -54 36 -60 4 -5 19 -30 32
-55 30 -53 41 -74 143 -250 43 -74 82 -140 86 -146 5 -6 6 -20 2 -30 -14 -35
-87 -159 -95 -162 -4 -2 -8 -8 -8 -13 0 -9 -79 -152 -110 -199 -6 -8 -14 -25
-19 -37 -6 -11 -15 -24 -21 -28 -5 -3 -8 -11 -5 -16 4 -5 2 -9 -3 -9 -5 0 -21
-24 -36 -53 -14 -29 -37 -69 -50 -88 l-24 -34 -376 0 -377 -1 -46 81 c-25 44
-68 116 -94 160 -26 44 -56 96 -67 115 -10 19 -36 63 -56 97 -20 34 -36 66
-36 71 0 6 -4 12 -8 14 -5 2 -23 29 -41 60 -36 64 -37 55 24 158 18 30 74 127
125 215 51 88 117 201 146 251 l52 90 374 0 373 1 26 -41z"/>
<path d="M656 2583 c-3 -4 -6 -172 -6 -374 l0 -368 181 3 c102 1 183 6 187 11
4 6 14 11 22 13 29 7 80 53 99 90 53 103 10 213 -103 262 l-48 22 33 16 c20
10 42 35 56 61 46 87 7 198 -84 242 -42 20 -64 23 -189 25 -78 2 -145 0 -148
-3z m244 -97 c46 -12 59 -20 70 -42 43 -79 -3 -157 -99 -171 -57 -7 -100 -7
-108 1 -7 6 -7 202 0 213 5 8 105 8 137 -1z m75 -331 c91 -34 100 -156 16
-200 -30 -15 -214 -26 -227 -13 -8 8 -9 211 -1 224 8 14 168 6 212 -11z"/>
<path d="M2164 2001 l-30 -6 -1 -400 c0 -485 0 -483 -107 -487 -41 -1 -42 -5
-32 -63 7 -36 10 -39 54 -40 80 -4 156 51 177 128 2 4 4 9 5 12 1 3 4 10 5 15
1 6 4 13 5 18 1 4 1 12 0 17 -5 22 -5 85 0 85 3 0 5 22 5 49 0 27 -3 47 -7 45
-4 -3 -5 2 -2 10 9 24 10 106 1 106 -5 0 -5 5 -1 11 10 17 10 118 0 112 -5 -4
-6 -1 -1 6 9 15 10 255 1 269 -3 6 -3 13 1 15 5 3 7 20 6 39 -1 18 -2 39 -2
47 -1 8 -4 11 -7 8 -4 -3 -14 -3 -23 1 -9 5 -30 6 -47 3z"/>
<path d="M571 1150 c-4 -3 -7 -171 -7 -374 l1 -369 50 -1 50 -1 5 289 5 290
113 -142 c63 -78 119 -142 125 -141 7 0 62 63 122 139 61 77 112 140 115 140
3 0 4 -128 2 -285 -2 -190 1 -285 8 -286 5 0 26 -1 45 -1 19 0 39 1 44 1 11 1
14 740 3 742 -79 12 -94 5 -157 -75 -16 -21 -37 -46 -46 -57 -8 -10 -42 -52
-75 -94 l-59 -76 -24 28 c-13 15 -33 39 -45 53 -18 21 -108 135 -141 178 -26
34 -48 46 -85 47 -22 1 -44 -2 -49 -5z"/>
</g>
</svg>
